/* XPM */
static char *_dc1a7d4c3cd439de304434923f3ffee7I4FGiAwlX7h0hZN[] = {
/* columns rows colors chars-per-pixel */
"96 32 17 1 ",
"  c None",
". c #170625",
"X c #740D12",
"o c #473042",
"O c #96070E",
"+ c #A5210E",
"@ c #B93C0E",
"# c #C84913",
"$ c #D1551A",
"% c #DC621C",
"& c #DD8646",
"* c #F4B66A",
"= c #B59E9F",
"- c #B9A9B5",
"; c #DED1CB",
": c #DEDFE4",
"> c #F4F8EE",
/* pixels */
"                                                                                                ",
"            oo                                                              oo                  ",
"            oo                                                              oo                  ",
"          oo>>oo                                                          oo>>oo                ",
"          oo>>oo                                                          oo>>oo                ",
"            oo>>oo  ....                                                    oo>>oo  ....        ",
"            oo>>oo  ....                                                    oo>>oo  ....        ",
"          oo;;>>::oo&&$$..                                                oo;;>>::oo&&$$..      ",
"          oo;;>>::oo&&$$..                                                oo;;>>::oo&&$$..      ",
"        oo;;>>;;>>::XX&&$$..                                            oo;;>>;;>>::XX&&$$..    ",
"        oo;;>>;;>>::XX&&$$..                                            oo;;>>;;>>::XX&&$$..    ",
"      ....==;;>>::--OOXX**$$..                                        ....==;;>>::--OOXX**$$..  ",
"      ....==;;>>::--OOXX**$$..                                        ....==;;>>::--OOXX**$$..  ",
"  ....++OOXX==----OO++OOXX&&$$..                                  ....++OOXX==----OO++OOXX&&$$..",
"  ....++OOXX==----OO++OOXX&&$$..                                  ....++OOXX==----OO++OOXX&&$$..",
"..++++++++OOOOOOOO++++++OOXX&&..                                ..++++++++OOOOOOOO++++++OOXX&&..",
"..++++++++OOOOOOOO++++++OOXX&&..                                ..++++++++OOOOOOOO++++++OOXX&&..",
"..####$$$$%%$$%%$$$$##$$@@@@**..                                ..####$$$$%%$$%%$$$$##$$@@@@**..",
"..####$$$$%%$$%%$$$$##$$@@@@**..                                ..####$$$$%%$$%%$$$$##$$@@@@**..",
"..##$$$$%%$$##$$%%$$$$%%##@@**..                                ..##$$$$%%$$##$$%%$$$$%%##@@**..",
"..##$$$$%%$$##$$%%$$$$%%##@@**..                                ..##$$$$%%$$##$$%%$$$$%%##@@**..",
"..@@##$$##%%%%%%$$%%##@@$$@@&&..                                ..@@##$$##%%%%%%$$%%##@@$$@@&&..",
"..@@##$$##%%%%%%$$%%##@@$$@@&&..                                ..@@##$$##%%%%%%$$%%##@@$$@@&&..",
"..&&**********************&&..                                  ..&&**********************&&..  ",
"..&&**********************&&..                                  ..&&**********************&&..  ",
"  ....................&&....                                      ....................&&....    ",
"  ....................&&....                                      ....................&&....    ",
"                      ....**..                                                        ....**..  ",
"                      ....**..                                                        ....**..  ",
"                          ..                                                              ..    ",
"                          ..                                                              ..    ",
"                                                                                                "
};
