/* XPM */
static char *_b25d390b5a34a59ec1bf641bc1ccf4cWreCPH97qhww4jxo[] = {
/* columns rows colors chars-per-pixel */
"32 32 17 1 ",
"  c None",
". c #170625",
"X c #740D12",
"o c #473042",
"O c #96070E",
"+ c #A5210E",
"@ c #B93C0E",
"# c #C84913",
"$ c #D1551A",
"% c #DC621C",
"& c #DD8646",
"* c #F4B66A",
"= c #B59E9F",
"- c #B9A9B5",
"; c #DED1CB",
": c #DEDFE4",
"> c #F4F8EE",
/* pixels */
"                                ",
"            oo                  ",
"            oo                  ",
"          oo>>oo                ",
"          oo>>oo                ",
"            oo>>oo  ....        ",
"            oo>>oo  ....        ",
"            oo>>oo  ....        ",
"          oo>>>>::oo&&$$..      ",
"          oo>>>>::oo&&$$..      ",
"        oo>>>>;;;;::XX&&$$..    ",
"        oo>>>>;;;;::XX&&$$..    ",
"      oooo==;;;;::--OOXX**$$..  ",
"      oooo==;;;;::--OOXX**$$..  ",
"  oooo@@++XX==----OO++OOXX&&$$..",
"  oooo@@++XX==----OO++OOXX&&$$..",
"oo####++++OOOOOOOO++++++OOXX&&..",
"oo####++++OOOOOOOO++++++OOXX&&..",
"oo$$$$$$$$%%$$%%$$$$##$$@@@@**..",
"oo$$$$$$$$%%$$%%$$$$##$$@@@@**..",
"oo$$%%%%%%$$##$$%%$$$$%%##@@**..",
"oo$$%%%%%%$$##$$%%$$$$%%##@@**..",
"oo%%%%$$##%%%%%%$$%%##@@$$@@&&..",
"oo%%%%$$##%%%%%%$$%%##@@$$@@&&..",
"oo&&**********************&&..  ",
"oo&&**********************&&..  ",
"  ....................&&....    ",
"  ....................&&....    ",
"                      ....**..  ",
"                      ....**..  ",
"                          ..    ",
"                          ..    ",
"                                "
};
