/* XPM */
static char *df639da3e8eb4fdcb32135ba44cad17azxDm8CXMYYzTCY2h[] = {
/* columns rows colors chars-per-pixel */
"48 48 6 1 ",
"  c None",
". c #EB7171",
"X c #FFEB3B",
"o c #526A98",
"O c #759DA9",
"+ c #FDF5F1",
/* pixels */
"XXXXXXXXXXXXXXXXXXXXXXXXXXXXXXXXXXXXXXXXXXXXXXXX",
"X                                              X",
"X                                              X",
"X                                              X",
"X                                              X",
"X                                              X",
"X                                              X",
"X                   oooooooo                   X",
"X                   oooooooo                   X",
"X               oooo++++++++oooo               X",
"X               oooo++++++++oooo               X",
"X             oo++++++++++++++++oo             X",
"X             oo++++++++++++++++oo             X",
"X           oo++++++++++++++++++++oo           X",
"X           oo++++++++++++++++++++oo           X",
"X           oo++++++++++++++++++++oo           X",
"X           oo++++++++++++++++++++oo           X",
"X         oo++++++++++oo++++oo++++++oo         X",
"X         oo++++++++++oo++++oo++++++oo         X",
"X         oo++++++..++oo++++oo++..++oo         X",
"X         oo++++++..++oo++++oo++..++oo         X",
"X       oo++++++++++++++++++++++++++OOoo       X",
"X       oo++++++++++++++++++++++++++OOoo       X",
"X     oo++++++++++++++++++++++++++++OOOOoo     X",
"X     oo++++++++++++++++++++++++++++OOOOoo     X",
"X     oo++++++OO++++++++++++++++++++OOOOoo     X",
"X     oo++++++OO++++++++++++++++++++OOOOoo     X",
"X       ooOOOO++++++++++++++++++++++OOoo       X",
"X       ooOOOO++++++++++++++++++++++OOoo       X",
"X         oo++++++++++++++++++++OO++oo         X",
"X         oo++++++++++++++++++++OO++oo         X",
"X         ooOO++++++OO++++++++++OOOOoo         X",
"X         ooOO++++++OO++++++++++OOOOoo         X",
"X           ooOOOOOOOO++++++OOOOOOoo           X",
"X           ooOOOOOOOO++++++OOOOOOoo           X",
"X             ooooooOOOOOOOOoooooo             X",
"X             ooooooOOOOOOOOoooooo             X",
"X                   oooooooo                   X",
"X                   oooooooo                   X",
"X                                              X",
"X                                              X",
"X                                              X",
"X                                              X",
"X                                              X",
"X                                              X",
"X                                              X",
"X                                              X",
"XXXXXXXXXXXXXXXXXXXXXXXXXXXXXXXXXXXXXXXXXXXXXXXX"
};
