/* XPM */
static char *b0b9c626689d47f5dfa81d083adcc8e9EyMpaJnvy0P7QFWT[] = {
/* columns rows colors chars-per-pixel */
"96 32 9 1 ",
"  c None",
". c #2F2F2E",
"X c #3B3B39",
"o c #4F4F4E",
"O c #9D5021",
"+ c #FF1744",
"@ c #D67941",
"# c gray72",
"$ c white",
/* pixels */
"                                                                ++++++++++++++++++++++++++++++++",
"                                                                +                              +",
"                                                                +                              +",
"                                                                +                              +",
"                                                                +                              +",
"                                                                +                              +",
"                                                                +                              +",
"                                                                +                              +",
"                                                                +                        ..    +",
"                                                                +                    .. .$.    +",
"                                                                +          ..        .$.$.     +",
"                                                                +     ...  .O.      .$$$$..    +",
"                                                                +     .@O. .$O.     .@$###.    +",
"                                                                +      .....$O.    .@@@##.     +",
"                                                                +      .@@@@OO.    .@@@#.      +",
"                                                                +     .OOO.@OO.    .@@@.       +",
"                                                                +    ...@@@@OOO.  .@@O.        +",
"                                                                +     .....$$##...@@O.         +",
"                                                                +    .$$$$$##..OOO.O.          +",
"                                                                +     .......@@OOOO.           +",
"                                                                +       ..##O@@@OOO.           +",
"                                                                +       .O...@....O.           +",
"                                                                +       .o. .o..X.X.           +",
"                                                                +       ..  ..  . ..           +",
"                                                                +                              +",
"                                                                +                              +",
"                                                                +                              +",
"                                                                +                              +",
"                                                                +                              +",
"                                                                +                              +",
"                                                                +                              +",
"                                                                ++++++++++++++++++++++++++++++++"
};
