/* XPM */
static char *_23ff20f977b4cfef134e40f12e28888bowz7tUsab6aSnzY[] = {
/* columns rows colors chars-per-pixel */
"64 96 5 1 ",
"  c None",
". c #3C744D",
"X c #7BB254",
"o c #4C9362",
"O c #FFEB3B",
/* pixels */
"OOOOOOOOOOOOOOOOOOOOOOOOOOOOOOOO                                ",
"O                              O                                ",
"O                              O                                ",
"O                              O                                ",
"O                              O                                ",
"O                              O                                ",
"O                              O                                ",
"O                              O                                ",
"O                              O                                ",
"O                              O                                ",
"O                              O                                ",
"O                              O                                ",
"O                              O                                ",
"O                              O                                ",
"O                              O                                ",
"O                              O                                ",
"O                              O                                ",
"O                              O                                ",
"O                              O                                ",
"O                              O                                ",
"O                              O                                ",
"O                              O                                ",
"O                              O                                ",
"O                              O                                ",
"O                              O                                ",
"O                              O                                ",
"O                              O                                ",
"O                              O                                ",
"O                              O                                ",
"O                              O                                ",
"O                              O                                ",
"OOOOOOOOOOOOOOOOOOOOOOOOOOOOOOOO                                ",
"                                OOOOOOOOOOOOOOOOOOOOOOOOOOOOOOOO",
"                                O                              O",
"                                O                              O",
"                                O                              O",
"                                O                              O",
"                                O                              O",
"                                O                              O",
"                                O                              O",
"                                O                              O",
"                                O                              O",
"                                O                              O",
"                                O                              O",
"                                O                              O",
"                                O                              O",
"                                O                              O",
"                                O                              O",
"                                O                              O",
"                                O                              O",
"                                O                              O",
"                                O                              O",
"                                O                              O",
"                                O                              O",
"                                O                              O",
"                                O                              O",
"                                O                              O",
"                                O                              O",
"                                O                              O",
"                                O                              O",
"                                O                              O",
"                                O                              O",
"                                O                              O",
"                                OOOOOOOOOOOOOOOOOOOOOOOOOOOOOOOO",
"                                oooooooooooooooooooooooooooooooo",
"                                oooooooooooooooooooooo.ooooooooo",
"                                ooooooooooooooooooooo.o.oooooooo",
"                                oooooooooooooooooooooo.ooooooooo",
"                                oooooooooooooooooooooooooooooooo",
"                                oooooooooooooooooooooooooooooooo",
"                                oooooooooooooooooXoooooooooooooo",
"                                oooooooooooooooooXXooooooooooooo",
"                                ooooooXooooooooooXXooXoooooooooo",
"                                ooooooXoooooooooooX.XXoooooooooo",
"                                ooooooXoXooooooooo.XX.oooooooooo",
"                                ooooooXoXoooooooooo..ooooooooooo",
"                                ooooooooXooooooooooooooooooooooo",
"                                oooooooooooooooooooooooooooooooo",
"                                oooooooooooooooooooooooooooooooo",
"                                oXoooooooooooooooooooooooooooooX",
"                                oXoooooooooooooooooooooooooooooX",
"                                Xooooooooooooooooooooooooooooooo",
"                                oooooooooooooooooooooooooooooooo",
"                                oooooooooooooooooooooooooooooooo",
"                                oooooooooooooooooooooooooooooooo",
"                                oooooooooo.ooooooooooooooooooooo",
"                                ooooooooo.o.oooooooooooooooooooo",
"                                oooooooooo.ooooooooooooooooooooo",
"                                oooooooooooooooooooooooooXoooooo",
"                                oooooooooooooooooooooooXoXoooooo",
"                                oooooooooooooooooooooooXoXoooooo",
"                                oooooooooooooooooooooooXoooooooo",
"                                oooooooooooooooooooooooooooooooo",
"                                oooooooooooooXoooooooooooooooooo",
"                                ooooooooooooXoXooooooooooooooooo",
"                                oooooooooooooXoooooooooooooooooo"
};
